<svg xmlns="http://www.w3.org/2000/svg" version="1.1" xmlns:xlink="http://www.w3.org/1999/xlink" xmlns:svgjs="http://svgjs.dev/svgjs" width="1500" height="375" viewBox="0 0 1500 375"><g transform="matrix(1,0,0,1,-0.9090909090909918,-0.7010106192786907)"><svg viewBox="0 0 396 99" data-background-color="#e3e6e8" preserveAspectRatio="xMidYMid meet" height="375" width="1500" xmlns="http://www.w3.org/2000/svg" xmlns:xlink="http://www.w3.org/1999/xlink"><g id="tight-bounds" transform="matrix(1,0,0,1,0.2400000000000091,0.18506680348957616)"><svg viewBox="0 0 395.52 98.62986639302085" height="98.62986639302085" width="395.52"><g><svg viewBox="0 0 395.52 98.62986639302085" height="98.62986639302085" width="395.52"><g><svg viewBox="0 0 585.605005924338 146.030904868026" height="98.62986639302085" width="395.52"><g><rect width="5.086651141965565" height="126.79962796065932" x="408.8358406857737" y="9.615638453683339" fill="#7238c0" opacity="1" stroke-width="0" stroke="transparent" fill-opacity="1" class="rect-yte-0" data-fill-palette-color="primary" rx="1%" id="yte-0" data-palette-color="#7238c0"></rect></g><g transform="matrix(1,0,0,1,0,20.182274117071614)"><svg viewBox="0 0 395.52 105.66635663388277" height="105.66635663388277" width="395.52"><g id="textblocktransform"><svg viewBox="0 0 395.52 105.66635663388277" height="105.66635663388277" width="395.52" id="textblock"><g><svg viewBox="0 0 395.52 56.40488946684005" height="56.40488946684005" width="395.52"><g transform="matrix(1,0,0,1,0,0)"><svg width="395.52" viewBox="0 -38.7 346.01 49.35" height="56.40488946684005" data-palette-color="#7238c0"><path d="M8.85-29.45L0-28.75 0.55-34.5 24.3-34.5 23.75-28.75 15.05-29.5 14.85-13 15.45 0 8.45 0 9.05-12.15 8.85-29.45ZM36.2-5.1L36.2-5.1Q37.65-5.1 39.25-5.85 40.85-6.6 41.75-7.35L41.75-7.35 42.65-8.1 44.95-5.3Q44.45-4.45 43.4-3.35 42.35-2.25 41.27-1.48 40.2-0.7 38.42-0.08 36.65 0.55 34.75 0.55L34.75 0.55Q30.7 0.55 28.15-2.53 25.6-5.6 25.6-10.45L25.6-10.45Q25.6-16.55 29.15-21.15 32.7-25.75 37.45-25.75L37.45-25.75Q41.1-25.75 43.12-23.7 45.15-21.65 45.15-17.95L45.15-17.95Q45.15-15.75 44.4-12.95L44.4-12.95 43.4-11.9 30.9-10.75Q31.75-5.1 36.2-5.1ZM36.2-20.6L36.2-20.6Q34-20.6 32.5-18.82 31-17.05 30.75-14.3L30.75-14.3 39.25-15.35Q39.4-16.5 39.4-17.25L39.4-17.25Q39.4-20.6 36.2-20.6ZM58.09-19.25Q55.89-19.25 54.7-17.68 53.49-16.1 53.49-12.85 53.49-9.6 54.72-7.63 55.95-5.65 58.3-5.65L58.3-5.65Q59.49-5.65 60.64-6.4 61.8-7.15 62.39-7.9L62.39-7.9 62.95-8.7 65.44-6.1Q65.3-5.85 65.07-5.4 64.84-4.95 63.97-3.8 63.09-2.65 62.12-1.78 61.14-0.9 59.59-0.18 58.05 0.55 56.34 0.55L56.34 0.55Q52.59 0.55 50.24-2.5 47.89-5.55 47.89-10.45L47.89-10.45Q47.89-16.55 51.45-21.15 54.99-25.75 59.74-25.75L59.74-25.75Q61.2-25.75 62.64-25.33 64.09-24.9 65.59-24L65.59-24 62.09-17.85Q60.3-19.25 58.09-19.25ZM83.34-12.65Q83.34-16.1 82.74-17.25 82.14-18.4 79.94-18.4 77.74-18.4 74.94-16.65L74.94-16.65 74.94-13 75.49-1.25 68.74 0 69.34-12.15 68.74-37.45 75.59-38.7 74.94-25.75 74.94-19.9Q75.69-20.9 76.64-21.85 77.59-22.8 79.59-24 81.59-25.2 83.87-25.2 86.14-25.2 87.69-23.43 89.24-21.65 89.24-18.6L89.24-18.6 88.94-13 89.49-1 82.74 0.25 83.34-12.65ZM94.04-24.2L96.94-24.2 96.94-29.65 103.69-30.95 103.04-24.2 109.09-24.2 108.54-20.1 102.84-20.1 102.59-9.65Q102.59-7.3 103.04-6.53 103.49-5.75 104.69-5.75 105.89-5.75 107.89-6.3L107.89-6.3 108.19-2.75Q104.89 0 102.39 0 99.89 0 98.29-1.83 96.69-3.65 96.69-6.6L96.69-6.6 96.99-12.2 96.94-20.1 93.49-20.1 94.04-24.2ZM112.74-24.2L119.44-25.45 118.84-13 119.39-1.25 112.69 0 113.29-12.15 112.74-24.2ZM112.39-32.77Q112.39-34.45 113.69-35.77 114.99-37.1 116.69-37.1 118.39-37.1 119.29-36.18 120.19-35.25 120.19-33.4 120.19-31.55 118.91-30.23 117.64-28.9 115.96-28.9 114.29-28.9 113.34-30 112.39-31.1 112.39-32.77ZM138.14-4.9L138.14-4.9Q134.24 0 131.39 0L131.39 0Q127.84 0 125.56-2.9 123.29-5.8 123.29-10.35L123.29-10.35Q123.29-16.6 126.76-20.9 130.24-25.2 135.29-25.2L135.29-25.2 138.09-24.8 138.09-25.75 137.49-37.45 144.34-38.7 143.69-13 143.69-8.6Q143.69-5.6 145.19-1.7L145.19-1.7 139.79 0.55Q138.34-2.45 138.14-4.9ZM128.89-12.95Q128.89-9.75 130.06-7.95 131.24-6.15 133.46-6.15 135.69-6.15 138.09-7.95L138.09-7.95 138.09-18.75Q135.09-19.35 133.64-19.35L133.64-19.35Q131.39-19.35 130.14-17.75 128.89-16.15 128.89-12.95ZM159.03-5.1L159.03-5.1Q160.48-5.1 162.08-5.85 163.68-6.6 164.58-7.35L164.58-7.35 165.48-8.1 167.78-5.3Q167.28-4.45 166.23-3.35 165.18-2.25 164.11-1.48 163.03-0.7 161.26-0.08 159.48 0.55 157.58 0.55L157.58 0.55Q153.53 0.55 150.98-2.53 148.43-5.6 148.43-10.45L148.43-10.45Q148.43-16.55 151.98-21.15 155.53-25.75 160.28-25.75L160.28-25.75Q163.93-25.75 165.96-23.7 167.98-21.65 167.98-17.95L167.98-17.95Q167.98-15.75 167.23-12.95L167.23-12.95 166.23-11.9 153.73-10.75Q154.58-5.1 159.03-5.1ZM159.03-20.6L159.03-20.6Q156.83-20.6 155.33-18.82 153.83-17.05 153.58-14.3L153.58-14.3 162.08-15.35Q162.23-16.5 162.23-17.25L162.23-17.25Q162.23-20.6 159.03-20.6ZM189.33-34.85L195.63-15.6 196.13-15.6 203.43-34.6 210.33-34.4 210.53-12.9 211.48 0 204.73 0 204.98-13 204.43-26.15 198.43-9.6 192.28-9.3 186.68-26.15 186.23-13 186.58 0 180.38 0 181.08-12.15 181.38-33.6 189.33-34.85ZM226.38-5.1L226.38-5.1Q227.83-5.1 229.43-5.85 231.03-6.6 231.93-7.35L231.93-7.35 232.83-8.1 235.13-5.3Q234.63-4.45 233.58-3.35 232.53-2.25 231.45-1.48 230.38-0.7 228.6-0.08 226.83 0.55 224.93 0.55L224.93 0.55Q220.88 0.55 218.33-2.53 215.78-5.6 215.78-10.45L215.78-10.45Q215.78-16.55 219.33-21.15 222.88-25.75 227.63-25.75L227.63-25.75Q231.28-25.75 233.3-23.7 235.33-21.65 235.33-17.95L235.33-17.95Q235.33-15.75 234.58-12.95L234.58-12.95 233.58-11.9 221.08-10.75Q221.93-5.1 226.38-5.1ZM226.38-20.6L226.38-20.6Q224.18-20.6 222.68-18.82 221.18-17.05 220.93-14.3L220.93-14.3 229.43-15.35Q229.58-16.5 229.58-17.25L229.58-17.25Q229.58-20.6 226.38-20.6ZM248.67-5.1L248.67-5.1Q250.12-5.1 251.72-5.85 253.32-6.6 254.22-7.35L254.22-7.35 255.12-8.1 257.42-5.3Q256.92-4.45 255.87-3.35 254.82-2.25 253.75-1.48 252.67-0.7 250.9-0.08 249.12 0.55 247.22 0.55L247.22 0.55Q243.17 0.55 240.62-2.53 238.07-5.6 238.07-10.45L238.07-10.45Q238.07-16.55 241.62-21.15 245.17-25.75 249.92-25.75L249.92-25.75Q253.57-25.75 255.6-23.7 257.62-21.65 257.62-17.95L257.62-17.95Q257.62-15.75 256.87-12.95L256.87-12.95 255.87-11.9 243.37-10.75Q244.22-5.1 248.67-5.1ZM248.67-20.6L248.67-20.6Q246.47-20.6 244.97-18.82 243.47-17.05 243.22-14.3L243.22-14.3 251.72-15.35Q251.87-16.5 251.87-17.25L251.87-17.25Q251.87-20.6 248.67-20.6ZM261.02-24.2L263.92-24.2 263.92-29.65 270.67-30.95 270.02-24.2 276.07-24.2 275.52-20.1 269.82-20.1 269.57-9.65Q269.57-7.3 270.02-6.53 270.47-5.75 271.67-5.75 272.87-5.75 274.87-6.3L274.87-6.3 275.17-2.75Q271.87 0 269.37 0 266.87 0 265.27-1.83 263.67-3.65 263.67-6.6L263.67-6.6 263.97-12.2 263.92-20.1 260.47-20.1 261.02-24.2ZM285.72 0L285.72 0Q283.02 0 281.34-1.78 279.67-3.55 279.67-6.45L279.67-6.45 279.97-12.2 279.42-24.2 286.12-25.45 285.47-10.25Q285.47-8.1 286.24-7.1 287.02-6.1 288.72-6.1 290.42-6.1 293.42-7.8L293.42-7.8 293.42-10.8 292.87-23.95 299.62-25.2 299.02-12.7 299.07-8.6Q299.07-5.4 300.72-2.15L300.72-2.15 295.52 0.15Q293.87-3.1 293.52-5.05L293.52-5.05Q289.02 0 285.72 0ZM318.57-25.25L318.57-25.25Q321.77-25.25 323.94-22.45 326.12-19.65 326.12-14.9L326.12-14.9Q326.12-8.25 322.69-4.13 319.27 0 314.17 0L314.17 0Q313.12 0 311.82-0.15L311.82-0.15 312.07 9.4 305.22 10.65 305.87-12.15 305.92-12.15Q305.72-18.85 304.82-24.15L304.82-24.15 310.87-25.45Q311.17-22.8 311.37-20.2L311.37-20.2Q311.47-20.45 312.39-21.58 313.32-22.7 315.12-23.98 316.92-25.25 318.57-25.25ZM316.62-18.75L316.62-18.75Q313.97-18.75 311.47-17.3L311.47-17.3 311.47-13 311.67-5.85Q314.37-5.4 315.77-5.4L315.77-5.4Q320.57-5.4 320.57-12.08 320.57-18.75 316.62-18.75ZM337.81-4.65L337.81-4.65Q340.41-4.65 340.41-6.95L340.41-6.95Q340.41-7.75 339.29-8.45 338.16-9.15 336.54-9.85 334.91-10.55 333.29-11.43 331.66-12.3 330.54-13.85 329.41-15.4 329.41-17.4L329.41-17.4Q329.41-20.75 332.36-23.25 335.31-25.75 339.16-25.75L339.16-25.75Q340.96-25.75 342.69-25.33 344.41-24.9 346.01-24L346.01-24 342.66-17.9Q342.31-18.2 341.76-18.65 341.21-19.1 339.69-19.83 338.16-20.55 336.99-20.55 335.81-20.55 335.19-20.03 334.56-19.5 334.56-18.57 334.56-17.65 336.29-16.73 338.01-15.8 340.06-15.03 342.11-14.25 343.84-12.48 345.56-10.7 345.56-8.25L345.56-8.25Q345.56-4.75 342.69-2.1 339.81 0.55 336.06 0.55L336.06 0.55Q333.66 0.55 331.59-0.5 329.51-1.55 328.61-2.6L328.61-2.6 327.71-3.65 331.66-8.25Q331.96-7.85 332.51-7.25 333.06-6.65 334.69-5.65 336.31-4.65 337.81-4.65Z" opacity="1" transform="matrix(1,0,0,1,0,0)" fill="#7238c0" class="wordmark-text-0" data-fill-palette-color="primary" id="text-0"></path></svg></g></svg></g><g transform="matrix(1,0,0,1,163.310208,69.72073015261378)"><svg viewBox="0 0 232.209792 35.94562648126899" height="35.94562648126899" width="232.209792"><g transform="matrix(1,0,0,1,0,0)"><svg width="232.209792" viewBox="1.95 -32.98 217 33.589999999999996" height="35.94562648126899" data-palette-color="#8853b3"><path d="M15.75-25.61L15.75-25.61Q18.65-25.61 19.97-25.13 21.29-24.66 21.63-24.39L21.63-24.39Q22.17-24.05 22.46-23.51L22.46-23.51Q22.63-23.24 22.85-22.58 23.07-21.92 23.17-21.14L23.17-21.14Q23.29-20.53 23.19-20.28 23.1-20.02 22.58-19.65L22.58-19.65Q22-19.26 21.3-18.96 20.61-18.65 20.17-18.53L20.17-18.53Q19.8-18.43 19.6-18.48 19.41-18.53 19.07-18.77L19.07-18.77Q18.68-19.04 17.97-19.37 17.26-19.7 16.02-19.7L16.02-19.7Q14.43-19.7 13-18.92 11.57-18.14 10.68-16.58 9.79-15.01 9.79-12.67L9.79-12.67Q9.79-9.16 11.63-7.23 13.48-5.3 16.58-5.3L16.58-5.3Q18.16-5.3 19.21-5.63 20.26-5.96 20.87-6.3L20.87-6.3Q21.36-6.57 21.62-6.43 21.88-6.3 22.02-5.96L22.02-5.96 23.8-1.93Q24.07-1.29 23.51-1.03L23.51-1.03Q22.61-0.56 20.53 0.02 18.46 0.61 15.41 0.61L15.41 0.61Q9.28 0.61 5.62-2.65 1.95-5.91 1.95-12.4L1.95-12.4Q1.95-16.55 3.64-19.51 5.32-22.46 8.42-24.04 11.52-25.61 15.75-25.61ZM39.77 0.61L39.77 0.61Q33.62 0.61 30.03-2.66 26.44-5.93 26.44-12.4L26.44-12.4Q26.44-19.04 30.16-22.33 33.88-25.61 40.11-25.61L40.11-25.61Q46.12-25.61 49.73-22.38 53.34-19.14 53.34-12.84L53.34-12.84Q53.34-6.27 49.73-2.83 46.12 0.61 39.77 0.61ZM40.01-5.3L40.01-5.3Q42.7-5.3 44.06-6.97 45.43-8.64 45.43-12.7L45.43-12.7Q45.43-16.55 44.05-18.13 42.67-19.7 39.96-19.7L39.96-19.7Q37.35-19.7 35.85-18.01 34.35-16.31 34.35-12.5L34.35-12.5Q34.35-8.52 35.78-6.91 37.2-5.3 40.01-5.3ZM82.76-15.55L82.76-15.55 82.76-1.29Q82.76-0.56 82.45-0.28 82.15 0 81.42 0L81.42 0 76.39 0Q75.65 0 75.35-0.28 75.04-0.56 75.04-1.29L75.04-1.29 75.04-14.28Q75.04-16.94 73.92-18.16 72.8-19.38 70.87-19.38L70.87-19.38Q68.94-19.38 67.9-18.55 66.87-17.72 66.3-16.46L66.3-16.46 66.3-1.29Q66.3-0.56 66-0.28 65.69 0 64.96 0L64.96 0 59.93 0Q59.2 0 58.89-0.28 58.59-0.56 58.59-1.29L58.59-1.29 58.59-21.75Q58.59-22.34 58.83-22.66L58.83-22.66Q59.35-23.34 60.07-24.05 60.79-24.76 61.84-25.56L61.84-25.56Q62.15-25.81 62.45-25.81L62.45-25.81Q62.71-25.81 63.06-25.56L63.06-25.56Q64.08-24.76 64.81-24.02 65.55-23.29 66.11-22.51L66.11-22.51 66.23-22.51Q66.65-23.05 67.48-23.77 68.31-24.49 69.81-25.05 71.31-25.61 73.65-25.61L73.65-25.61Q75.95-25.61 78.02-24.68 80.1-23.75 81.43-21.56 82.76-19.36 82.76-15.55ZM113.52-15.55L113.52-15.55 113.52-1.29Q113.52-0.56 113.21-0.28 112.91 0 112.18 0L112.18 0 107.15 0Q106.41 0 106.11-0.28 105.8-0.56 105.8-1.29L105.8-1.29 105.8-14.28Q105.8-16.94 104.68-18.16 103.56-19.38 101.63-19.38L101.63-19.38Q99.7-19.38 98.66-18.55 97.62-17.72 97.06-16.46L97.06-16.46 97.06-1.29Q97.06-0.56 96.76-0.28 96.45 0 95.72 0L95.72 0 90.69 0Q89.96 0 89.65-0.28 89.35-0.56 89.35-1.29L89.35-1.29 89.35-21.75Q89.35-22.34 89.59-22.66L89.59-22.66Q90.1-23.34 90.83-24.05 91.55-24.76 92.6-25.56L92.6-25.56Q92.91-25.81 93.21-25.81L93.21-25.81Q93.47-25.81 93.82-25.56L93.82-25.56Q94.84-24.76 95.57-24.02 96.31-23.29 96.87-22.51L96.87-22.51 96.99-22.51Q97.4-23.05 98.23-23.77 99.06-24.49 100.57-25.05 102.07-25.61 104.41-25.61L104.41-25.61Q106.71-25.61 108.78-24.68 110.86-23.75 112.19-21.56 113.52-19.36 113.52-15.55ZM132.36 0.61L132.36 0.61Q128.24 0.61 125.19-0.72 122.13-2.05 120.45-4.86 118.76-7.67 118.76-12.11L118.76-12.11Q118.76-18.77 122.18-22.19 125.6-25.61 131.26-25.61L131.26-25.61Q134.95-25.61 137.5-24.29 140.05-22.97 141.38-20.65 142.71-18.33 142.71-15.36L142.71-15.36Q142.71-12.45 141.23-11.3 139.74-10.16 136.88-10.16L136.88-10.16 126.41-10.16Q126.6-7.64 128.25-6.32 129.9-5 132.73-5L132.73-5Q134.98-5 136.33-5.68 137.69-6.35 138.22-6.74L138.22-6.74Q138.69-7.08 139.27-7.06L139.27-7.06Q139.74-7.06 140.6-6.87 141.47-6.69 142.32-6.2L142.32-6.2Q142.93-5.88 142.93-5.32L142.93-5.32Q142.93-5 142.81-4.42L142.81-4.42Q142.74-4.08 142.57-3.43 142.4-2.78 142.13-2.22L142.13-2.22Q141.98-1.95 141.66-1.71L141.66-1.71Q141.18-1.37 140.09-0.81 139-0.24 137.12 0.18 135.24 0.61 132.36 0.61ZM126.36-15.16L126.36-15.16 134.32-15.16Q135.56-15.16 135.56-16.31L135.56-16.31Q135.56-18.04 134.47-19.23 133.39-20.41 131.22-20.41L131.22-20.41Q128.85-20.41 127.74-18.9 126.63-17.38 126.36-15.16ZM160.53-25.61L160.53-25.61Q163.44-25.61 164.76-25.13 166.08-24.66 166.42-24.39L166.42-24.39Q166.96-24.05 167.25-23.51L167.25-23.51Q167.42-23.24 167.64-22.58 167.86-21.92 167.96-21.14L167.96-21.14Q168.08-20.53 167.98-20.28 167.88-20.02 167.37-19.65L167.37-19.65Q166.78-19.26 166.09-18.96 165.39-18.65 164.95-18.53L164.95-18.53Q164.59-18.43 164.39-18.48 164.2-18.53 163.85-18.77L163.85-18.77Q163.46-19.04 162.76-19.37 162.05-19.7 160.8-19.7L160.8-19.7Q159.22-19.7 157.79-18.92 156.36-18.14 155.47-16.58 154.58-15.01 154.58-12.67L154.58-12.67Q154.58-9.16 156.42-7.23 158.26-5.3 161.36-5.3L161.36-5.3Q162.95-5.3 164-5.63 165.05-5.96 165.66-6.3L165.66-6.3Q166.15-6.57 166.41-6.43 166.66-6.3 166.81-5.96L166.81-5.96 168.59-1.93Q168.86-1.29 168.3-1.03L168.3-1.03Q167.39-0.56 165.32 0.02 163.24 0.61 160.19 0.61L160.19 0.61Q154.06 0.61 150.4-2.65 146.74-5.91 146.74-12.4L146.74-12.4Q146.74-16.55 148.43-19.51 150.11-22.46 153.21-24.04 156.31-25.61 160.53-25.61ZM182.46 0.61L182.46 0.61Q174.3 0.61 174.3-7.86L174.3-7.86 174.3-19.31 171.54-19.31Q170.81-19.31 170.53-19.62 170.25-19.92 170.25-20.65L170.25-20.65 170.25-23.66Q170.25-24.39 170.53-24.69 170.81-25 171.54-25L171.54-25 174.3-25 174.3-28.93Q174.3-29.52 174.55-29.83L174.55-29.83Q175.57-31.18 177.55-32.74L177.55-32.74Q177.89-32.98 178.16-32.98L178.16-32.98Q178.45-32.98 178.74-32.74L178.74-32.74Q179.79-31.93 180.51-31.23 181.24-30.52 181.75-29.83L181.75-29.83Q181.99-29.52 181.99-28.93L181.99-28.93 181.99-25 186.31-25Q187.05-25 187.33-24.69 187.61-24.39 187.61-23.66L187.61-23.66 187.61-20.65Q187.61-19.92 187.33-19.62 187.05-19.31 186.31-19.31L186.31-19.31 181.99-19.31 181.99-9.2Q181.99-5.3 184.82-5.3L184.82-5.3Q185.26-5.3 185.63-5.38 186-5.47 186.26-5.57L186.26-5.57Q186.78-5.76 186.98-5.71 187.19-5.66 187.36-5.18L187.36-5.18 188.78-1.39Q189-0.78 188.49-0.51L188.49-0.51Q188.12-0.34 186.72 0.13 185.31 0.61 182.46 0.61ZM209.8-2.44L204.38-2.44 204.38-11.6 195.17-11.6 195.17-17.04 204.38-17.04 204.38-26.25 209.8-26.25 209.8-17.04 218.95-17.04 218.95-11.6 209.8-11.6 209.8-2.44Z" opacity="1" transform="matrix(1,0,0,1,0,0)" fill="#8853b3" class="slogan-text-1" data-fill-palette-color="secondary" id="text-1"></path></svg></g></svg></g></svg></g></svg></g><g transform="matrix(1,0,0,1,427.23833251351294,0)"><svg viewBox="0 0 158.36667341082503 146.030904868026" height="146.030904868026" width="158.36667341082503"><g><svg xmlns="http://www.w3.org/2000/svg" xmlns:xlink="http://www.w3.org/1999/xlink" version="1.1" x="0" y="0" viewBox="50 66 412.1 380" style="enable-background:new 0 0 512 512;" xml:space="preserve" height="146.030904868026" width="158.36667341082503" class="icon-icon-0" data-fill-palette-color="accent" id="icon-0"><g fill="#b4bfc5" data-fill-palette-color="accent"><path d="M50 326.9C50 339.7 60.7 350 73.6 350H438.5C451.3 350 462.1 339.7 462.1 326.9V306H50z" fill="#b4bfc5" data-fill-palette-color="accent"></path><path d="M263.2 179.2C263.2 174.7 259.5 171 255 171S246.8 174.7 246.8 179.2 250.5 187.4 255 187.4C259.6 187.4 263.2 183.7 263.2 179.2" fill="#b4bfc5" data-fill-palette-color="accent"></path><path d="M255.1 116.1C250.6 116.1 246.9 119.8 246.9 124.3S250.6 132.5 255.1 132.5 263.3 128.8 263.3 124.3C263.2 119.8 259.6 116.1 255.1 116.1" fill="#b4bfc5" data-fill-palette-color="accent"></path><path d="M255.1 227.7C250.6 227.7 246.9 231.4 246.9 235.9S250.6 244.1 255.1 244.1 263.3 240.4 263.3 235.9C263.2 231.4 259.6 227.7 255.1 227.7" fill="#b4bfc5" data-fill-palette-color="accent"></path><path d="M200.2 171C195.7 171 192 174.7 192 179.2S195.7 187.4 200.2 187.4 208.4 183.7 208.4 179.2C208.4 174.6 204.7 171 200.2 171" fill="#b4bfc5" data-fill-palette-color="accent"></path><path d="M200.2 132.5C204.7 132.5 208.4 128.8 208.4 124.3S204.7 116.1 200.2 116.1 192 119.8 192 124.3 195.7 132.5 200.2 132.5" fill="#b4bfc5" data-fill-palette-color="accent"></path><path d="M200.2 227.7C195.7 227.7 192 231.4 192 235.9S195.7 244.1 200.2 244.1 208.4 240.4 208.4 235.9 204.7 227.7 200.2 227.7" fill="#b4bfc5" data-fill-palette-color="accent"></path><path d="M438.4 66H73.6C60.7 66 50.2 76.4 50 89.2V294H462V89.2C461.8 76.4 451.3 66 438.4 66M291.6 124.3C291.6 113.2 300.6 104.1 311.8 104.1S332 113.1 332 124.3 323 144.5 311.8 144.5 291.6 135.5 291.6 124.3M200.2 256.1C189 256.1 180 247.1 180 235.9S189 215.7 200.2 215.7 220.4 224.7 220.4 235.9 211.3 256.1 200.2 256.1M275.2 235.9C275.2 247.1 266.2 256.1 255.1 256.2 243.9 256.2 234.9 247.2 234.8 236.1 234.8 234.3 235 232.5 235.5 230.8L203.8 199C192.8 201 182.3 193.8 180.2 182.8 180 181.6 179.9 180.4 179.9 179.1 179.9 170.4 186 163 193 160.2V143.2C186 140.4 179.9 133 179.9 124.3 179.9 113.2 188.9 104.1 200.1 104.1S220.3 113.1 220.3 124.3C220.4 133.6 214.1 141.6 205.1 143.8V159.6C215.9 162.3 222.5 173.3 219.8 184.1 219 187.5 217.3 190.5 214.9 193L242.3 220.3C244.6 218.4 247.3 217 250.2 216.3V198.6C239.4 195.8 232.9 184.8 235.7 174S249.5 156.7 260.3 159.5 277.6 173.3 274.8 184.1C273.1 190.5 268.4 195.7 262.2 198V217C269.9 219.9 275.2 227.5 275.2 235.9M319 198.1V217C326 219.8 332.1 227.2 332.1 235.9 332.1 247 323.1 256.1 311.9 256.1 300.8 256.1 291.7 247.1 291.7 235.9 291.6 226.6 297.9 218.6 306.9 216.4V198.7C296.1 196 289.5 185 292.3 174.2 292.6 172.9 293.1 171.6 293.7 170.3L265.2 141.7C255.5 147.4 243.1 144.2 237.4 134.6 231.7 124.9 234.9 112.5 244.5 106.8 254.2 101.1 266.6 104.3 272.3 113.9 275.7 119.7 276.1 126.8 273.2 132.8L301.8 161.6C304.8 159.9 308.2 159 311.7 159 322.9 159 331.9 168 332 179.2 332.1 187.8 326 195.3 319 198.1" fill="#b4bfc5" data-fill-palette-color="accent"></path><path d="M311.8 132.5C316.3 132.5 320 128.8 320 124.3S316.3 116.1 311.8 116.1 303.6 119.8 303.6 124.3 307.3 132.5 311.8 132.5" fill="#b4bfc5" data-fill-palette-color="accent"></path><path d="M311.8 171C307.3 171 303.6 174.7 303.6 179.2S307.3 187.4 311.8 187.4 320 183.7 320 179.2C320 174.6 316.3 171 311.8 171" fill="#b4bfc5" data-fill-palette-color="accent"></path><path d="M311.8 227.7C307.3 227.7 303.6 231.4 303.6 235.9S307.3 244.1 311.8 244.1 320 240.4 320 235.9 316.3 227.7 311.8 227.7" fill="#b4bfc5" data-fill-palette-color="accent"></path><path d="M351.2 434H318V356H194V434H166.1C162.8 434 160.1 436.7 160.1 440S162.8 446 166.1 446H351.1C354.4 446 357.1 443.3 357.1 440S354.5 434 351.2 434" fill="#b4bfc5" data-fill-palette-color="accent"></path></g></svg></g></svg></g></svg></g></svg></g><defs></defs></svg><rect width="395.52" height="98.62986639302085" fill="none" stroke="none" visibility="hidden"></rect></g></svg></g></svg>